<?xml version="1.0"?>
<!-- Generated by SVGo -->
<svg width="600" height="922"
     xmlns="http://www.w3.org/2000/svg"
     xmlns:xlink="http://www.w3.org/1999/xlink">
<rect x="0" y="0" width="600" height="922" style="fill:rgb(240,240,240)" />
<g style="font-size:15px;font-family:sans-serif">
<text x="110" y="25" style="text-anchor:middle;font-size:120%" >align-guarantee</text>
<rect x="60" y="50" width="100" height="20" style="fill:steelblue" />
<text x="170" y="60" >0</text>
<text x="220" y="60" >Ag.arr [2]int8 (size 2, align 1)</text>
<rect x="60" y="78" width="100" height="10" style="fill:steelblue" />
<text x="170" y="88" >2</text>
<text x="220" y="88" >Ag.bl bool (size 1, align 1)</text>
<rect x="60" y="96" width="100" height="50" style="fill:maroon" />
<text x="170" y="106" >3</text>
<text x="220" y="106" >padding (size 5, align 0)</text>
<text x="50" y="146" style="text-anchor:end" >7</text>
<rect x="60" y="154" width="100" height="240" style="fill:steelblue" />
<text x="170" y="164" >8</text>
<text x="220" y="164" >Ag.sl []int16 (size 24, align 8)</text>
<text x="50" y="394" style="text-anchor:end" >31</text>
<rect x="60" y="402" width="100" height="80" style="fill:steelblue" />
<text x="170" y="412" >32</text>
<text x="220" y="412" >Ag.ptr *int64 (size 8, align 8)</text>
<text x="50" y="482" style="text-anchor:end" >39</text>
<rect x="60" y="490" width="100" height="160" style="fill:steelblue" />
<text x="170" y="500" >40</text>
<text x="220" y="500" >Ag.st.str string (size 16, align 8)</text>
<text x="50" y="650" style="text-anchor:end" >55</text>
<rect x="60" y="658" width="100" height="80" style="fill:steelblue" />
<text x="170" y="668" >56</text>
<text x="220" y="668" >Ag.m map[string]int16 (size 8, align 8)</text>
<text x="50" y="738" style="text-anchor:end" >63</text>
<rect x="60" y="746" width="100" height="160" style="fill:steelblue" />
<text x="170" y="756" >64</text>
<text x="220" y="756" >Ag.i interface{} (size 16, align 8)</text>
<text x="50" y="906" style="text-anchor:end" >79</text>
</g>
</svg>
