<?xml version="1.0"?>
<!-- Generated by SVGo -->
<svg width="600" height="530"
     xmlns="http://www.w3.org/2000/svg"
     xmlns:xlink="http://www.w3.org/1999/xlink">
<rect x="0" y="0" width="600" height="530" style="fill:rgb(240,240,240)" />
<g style="font-size:15px;font-family:sans-serif">
<text x="110" y="25" style="text-anchor:middle;font-size:120%" >align-guarantee-example2</text>
<rect x="60" y="50" width="100" height="20" style="fill:steelblue" />
<text x="170" y="60" >0</text>
<text x="220" y="60" >tooMuchPadding.i16 int16 (size 2, align 2)</text>
<rect x="60" y="78" width="100" height="60" style="fill:maroon" />
<text x="170" y="88" >2</text>
<text x="220" y="88" >padding (size 6, align 0)</text>
<text x="50" y="138" style="text-anchor:end" >7</text>
<rect x="60" y="146" width="100" height="80" style="fill:steelblue" />
<text x="170" y="156" >8</text>
<text x="220" y="156" >tooMuchPadding.i64 int64 (size 8, align 8)</text>
<text x="50" y="226" style="text-anchor:end" >15</text>
<rect x="60" y="234" width="100" height="10" style="fill:steelblue" />
<text x="170" y="244" >16</text>
<text x="220" y="244" >tooMuchPadding.i8 int8 (size 1, align 1)</text>
<rect x="60" y="252" width="100" height="30" style="fill:maroon" />
<text x="170" y="262" >17</text>
<text x="220" y="262" >padding (size 3, align 0)</text>
<text x="50" y="282" style="text-anchor:end" >19</text>
<rect x="60" y="290" width="100" height="40" style="fill:steelblue" />
<text x="170" y="300" >20</text>
<text x="220" y="300" >tooMuchPadding.i32 int32 (size 4, align 4)</text>
<text x="50" y="330" style="text-anchor:end" >23</text>
<rect x="60" y="338" width="100" height="80" style="fill:steelblue" />
<text x="170" y="348" >24</text>
<text x="220" y="348" >tooMuchPadding.ptr *string (size 8, align 8)</text>
<text x="50" y="418" style="text-anchor:end" >31</text>
<rect x="60" y="426" width="100" height="10" style="fill:steelblue" />
<text x="170" y="436" >32</text>
<text x="220" y="436" >tooMuchPadding.b bool (size 1, align 1)</text>
<rect x="60" y="444" width="100" height="70" style="fill:maroon" />
<text x="170" y="454" >33</text>
<text x="220" y="454" >padding (size 7, align 0)</text>
<text x="50" y="514" style="text-anchor:end" >39</text>
</g>
</svg>
