<?xml version="1.0"?>
<!-- Generated by SVGo -->
<svg width="600" height="610"
     xmlns="http://www.w3.org/2000/svg"
     xmlns:xlink="http://www.w3.org/1999/xlink">
<rect x="0" y="0" width="600" height="610" style="fill:rgb(240,240,240)" />
<g style="font-size:15px;font-family:sans-serif">
<text x="110" y="25" style="text-anchor:middle;font-size:120%" >watch-for-hmap</text>
<rect x="60" y="50" width="100" height="80" style="fill:steelblue" />
<text x="170" y="60" >0</text>
<text x="220" y="60" >hmap.count int (size 8, align 8)</text>
<text x="50" y="130" style="text-anchor:end" >7</text>
<rect x="60" y="138" width="100" height="10" style="fill:steelblue" />
<text x="170" y="148" >8</text>
<text x="220" y="148" >hmap.flags uint8 (size 1, align 1)</text>
<rect x="60" y="156" width="100" height="10" style="fill:steelblue" />
<text x="170" y="166" >9</text>
<text x="220" y="166" >hmap.B uint8 (size 1, align 1)</text>
<rect x="60" y="174" width="100" height="20" style="fill:steelblue" />
<text x="170" y="184" >10</text>
<text x="220" y="184" >hmap.noverflow uint16 (size 2, align 2)</text>
<rect x="60" y="202" width="100" height="40" style="fill:steelblue" />
<text x="170" y="212" >12</text>
<text x="220" y="212" >hmap.hash0 uint32 (size 4, align 4)</text>
<text x="50" y="242" style="text-anchor:end" >15</text>
<rect x="60" y="250" width="100" height="80" style="fill:steelblue" />
<text x="170" y="260" >16</text>
<text x="220" y="260" >hmap.buckets invalid type (size 8, align 8)</text>
<text x="50" y="330" style="text-anchor:end" >23</text>
<rect x="60" y="338" width="100" height="80" style="fill:steelblue" />
<text x="170" y="348" >24</text>
<text x="220" y="348" >hmap.oldbuckets invalid type (size 8, align 8)</text>
<text x="50" y="418" style="text-anchor:end" >31</text>
<rect x="60" y="426" width="100" height="80" style="fill:steelblue" />
<text x="170" y="436" >32</text>
<text x="220" y="436" >hmap.nevacuate uintptr (size 8, align 8)</text>
<text x="50" y="506" style="text-anchor:end" >39</text>
<rect x="60" y="514" width="100" height="80" style="fill:steelblue" />
<text x="170" y="524" >40</text>
<text x="220" y="524" >hmap.extra *invalid type (size 8, align 8)</text>
<text x="50" y="594" style="text-anchor:end" >47</text>
</g>
</svg>
